# xmcd
#
# Track frame offsets: 
#        150
#        30777
#        75160
#        95249
#        139902
#        167963
#        192093
#        209625
#        236940
#        263009
#
# Disc length: 3824 seconds
#
# Revision: 3
# Processed by: cddbd v1.5.2PL0 Copyright (c) Steve Scherf et al.
# Submitted via: ExactAudioCopy v0.95b4
#
DISCID=850eee0a
DTITLE=Various Artist - Éthiopiques 15: Jump to Addis
DYEAR=2003
DGENRE=World
TTITLE0=Yèzinna Négash - Bati
TTITLE1=Zèlalèm "Mimi" Guèbrè - Abèbayèhush
TTITLE2=Mignot Zènèbè Yèshimèbèt - Sondéferi
TTITLE3=Guènnèt Masrèsha - Ambassel
TTITLE4=Guété Anlay - Erè Gèdamu - Ashebel Gèdayé
TTITLE5=Yèshimèbèt - Mèdo Hané
TTITLE6=Yèzinna Négash - Sègota 1
TTITLE7=Yèzinna Négash - Sègota 2
TTITLE8=Yèshimèbèt - Koko
TTITLE9=Asnagè Guèbrèyès - Bèlomi Bènna
EXTD=YEAR: 2003
EXTT0=
EXTT1=
EXTT2=
EXTT3=
EXTT4=
EXTT5=
EXTT6=
EXTT7=
EXTT8=
EXTT9=
PLAYORDER=
